<svg width="128" height="127" viewBox="0 0 128 127" fill="none" xmlns="http://www.w3.org/2000/svg">
<path d="M63.5424 126.571C98.6359 126.571 127.085 98.237 127.085 63.2854C127.085 28.3339 98.6359 5.97045e-06 63.5424 5.20346e-06C28.4489 4.43647e-06 -6.19256e-07 28.3339 -1.38315e-06 63.2854C-2.14704e-06 98.237 28.4489 126.571 63.5424 126.571Z" fill="#3F3D56"/>
<path d="M118.218 63.2855C118.225 71.7825 116.232 80.1627 112.399 87.7541C108.567 95.3455 103.002 101.937 96.15 107C95.6919 107.341 95.2249 107.674 94.755 107.997C85.5925 114.341 74.701 117.74 63.5424 117.74C52.3837 117.74 41.4922 114.341 32.3297 107.997C31.8598 107.674 31.3928 107.341 30.9347 107C24.0877 101.932 18.5259 95.3402 14.694 87.7498C10.8621 80.1594 8.86633 71.7813 8.86633 63.2855C8.86633 54.7896 10.8621 46.4116 14.694 38.8212C18.5259 31.2308 24.0877 24.6385 30.9347 19.5714C31.3928 19.23 31.8598 18.8974 32.3297 18.5736C41.4922 12.2304 52.3837 8.83057 63.5424 8.83057C74.701 8.83057 85.5925 12.2304 94.755 18.5736C95.2249 18.8974 95.6919 19.23 96.15 19.5714C103.002 24.6341 108.567 31.2254 112.399 38.8169C116.232 46.4083 118.225 54.7885 118.218 63.2855Z" fill="white"/>
<path d="M63.5425 113.031C91.1276 113.031 113.49 90.759 113.49 63.2854C113.49 35.8119 91.1276 13.5401 63.5425 13.5401C35.9574 13.5401 13.5952 35.8119 13.5952 63.2854C13.5952 90.759 35.9574 113.031 63.5425 113.031Z" fill="#8FE1D7"/>
<path d="M63.6902 10.0079C63.2593 10.0087 62.8463 10.1795 62.5416 10.483C62.2369 10.7864 62.0655 11.1977 62.0647 11.6269L62.0647 18.6913C62.0647 19.1207 62.236 19.5324 62.5408 19.8361C62.8456 20.1397 63.2591 20.3102 63.6902 20.3102C64.1213 20.3102 64.5348 20.1397 64.8396 19.8361C65.1444 19.5324 65.3157 19.1207 65.3157 18.6913L65.3157 11.6269C65.3149 11.1977 65.1434 10.7864 64.8388 10.483C64.5341 10.1795 64.1211 10.0087 63.6902 10.0079Z" fill="white"/>
<path d="M96.1501 19.5714C95.692 19.23 95.225 18.8973 94.7551 18.5735C94.4731 18.5552 94.1913 18.6105 93.9373 18.7339C93.6833 18.8573 93.466 19.0445 93.3069 19.277L89.3141 25.114C89.0715 25.4688 88.9804 25.9051 89.0607 26.3268C89.1411 26.7486 89.3864 27.1212 89.7427 27.3629C90.0989 27.6045 90.5369 27.6953 90.9604 27.6152C91.3838 27.5352 91.758 27.2909 92.0006 26.9361L95.9934 21.0991C96.1454 20.8776 96.2393 20.6219 96.2666 20.3551C96.294 20.0882 96.2539 19.8189 96.1501 19.5714Z" fill="white"/>
<path d="M114.291 46.1866C114.21 45.9898 114.092 45.8107 113.942 45.6595C113.792 45.5083 113.614 45.388 113.417 45.3054C113.221 45.2229 113.01 45.1797 112.797 45.1784C112.583 45.177 112.372 45.2176 112.174 45.2976L105.602 47.9556C105.203 48.1175 104.884 48.4305 104.717 48.8259C104.55 49.2212 104.547 49.6666 104.709 50.0641C104.871 50.4616 105.185 50.7788 105.582 50.9458C105.979 51.1129 106.426 51.1162 106.825 50.9551L113.398 48.2971C113.797 48.1344 114.115 47.821 114.282 47.4254C114.449 47.0299 114.452 46.5844 114.291 46.1866Z" fill="white"/>
<path d="M37.7708 25.114L33.778 19.277C33.6189 19.0445 33.4016 18.8573 33.1477 18.7339C32.8937 18.6105 32.6118 18.5552 32.3298 18.5735C31.8599 18.8973 31.3929 19.23 30.9348 19.5714C30.831 19.8189 30.7909 20.0882 30.8183 20.3551C30.8456 20.6219 30.9396 20.8776 31.0915 21.0991L35.0843 26.9361C35.3269 27.2909 35.7011 27.5352 36.1245 27.6152C36.548 27.6953 36.986 27.6045 37.3423 27.3629C37.6985 27.1213 37.9438 26.7486 38.0242 26.3268C38.1046 25.9051 38.0134 25.4688 37.7708 25.114Z" fill="white"/>
<path d="M21.4832 47.9557L14.9102 45.2977C14.5109 45.1362 14.0635 45.1393 13.6664 45.3063C13.2694 45.4733 12.9552 45.7905 12.7929 46.1882C12.6307 46.5859 12.6337 47.0315 12.8013 47.427C12.9689 47.8225 13.2874 48.1354 13.6867 48.2971L20.2596 50.9551C20.6589 51.1162 21.1061 51.1129 21.5029 50.9458C21.8997 50.7788 22.2137 50.4616 22.3758 50.0641C22.538 49.6666 22.5351 49.2212 22.3677 48.8259C22.2003 48.4305 21.8822 48.1175 21.4832 47.9557L21.4832 47.9557Z" fill="white"/>
<path d="M63.6902 106.261C63.2593 106.261 62.8463 106.432 62.5416 106.736C62.2369 107.039 62.0655 107.451 62.0647 107.88L62.0647 114.944C62.0647 115.373 62.236 115.785 62.5408 116.089C62.8456 116.392 63.2591 116.563 63.6902 116.563C64.1213 116.563 64.5348 116.392 64.8396 116.089C65.1444 115.785 65.3157 115.373 65.3157 114.944L65.3157 107.88C65.3149 107.451 65.1434 107.039 64.8388 106.736C64.5341 106.432 64.1211 106.261 63.6902 106.261Z" fill="white"/>
<path d="M95.9935 105.472L92.0006 99.6349C91.8805 99.4592 91.7268 99.3088 91.5483 99.1922C91.3698 99.0757 91.1701 98.9953 90.9604 98.9557C90.7507 98.9161 90.5353 98.918 90.3263 98.9613C90.1174 99.0046 89.919 99.0884 89.7426 99.2081C89.5662 99.3277 89.4152 99.4808 89.2982 99.6585C89.1812 99.8363 89.1005 100.035 89.0607 100.244C89.0209 100.453 89.0228 100.667 89.0663 100.876C89.1098 101.084 89.194 101.281 89.3141 101.457L93.3069 107.294C93.466 107.526 93.6833 107.714 93.9373 107.837C94.1912 107.96 94.4731 108.016 94.7551 107.997C95.225 107.674 95.692 107.341 96.1501 107C96.2539 106.752 96.294 106.483 96.2666 106.216C96.2393 105.949 96.1454 105.693 95.9935 105.472Z" fill="white"/>
<path d="M113.398 78.2738L106.825 75.6158C106.426 75.4543 105.978 75.4574 105.581 75.6244C105.184 75.7914 104.87 76.1086 104.708 76.5063C104.546 76.904 104.549 77.3496 104.716 77.7451C104.884 78.1405 105.202 78.4535 105.602 78.6152L112.175 81.2732C112.574 81.4343 113.021 81.431 113.418 81.2639C113.815 81.0969 114.129 80.7797 114.291 80.3822C114.453 79.9847 114.45 79.5393 114.283 79.144C114.115 78.7486 113.797 78.4356 113.398 78.2737L113.398 78.2738Z" fill="white"/>
<path d="M37.3423 99.208C36.986 98.9665 36.548 98.8758 36.1246 98.9558C35.7011 99.0359 35.327 99.2801 35.0843 99.6348L31.0915 105.472C30.9396 105.693 30.8456 105.949 30.8183 106.216C30.7909 106.483 30.831 106.752 30.9348 106.999C31.3929 107.341 31.8599 107.674 32.3298 107.997C32.6118 108.016 32.8937 107.96 33.1477 107.837C33.4016 107.714 33.6189 107.526 33.778 107.294L37.7708 101.457C37.891 101.281 37.9752 101.084 38.0187 100.876C38.0621 100.667 38.064 100.453 38.0242 100.244C37.9844 100.035 37.9037 99.8362 37.7867 99.6584C37.6697 99.4807 37.5187 99.3276 37.3423 99.208Z" fill="white"/>
<path d="M22.3758 76.5048C22.2955 76.308 22.1771 76.1288 22.0273 75.9777C21.8775 75.8265 21.6992 75.7061 21.5027 75.6236C21.3062 75.541 21.0952 75.4979 20.882 75.4965C20.6687 75.4952 20.4572 75.5357 20.2597 75.6158L13.6867 78.2738C13.2878 78.4357 12.9696 78.7487 12.8022 79.144C12.6349 79.5394 12.6319 79.9848 12.7941 80.3823C12.9563 80.7798 13.2702 81.0969 13.667 81.264C14.0639 81.4311 14.511 81.4344 14.9103 81.2732L21.4832 78.6153C21.882 78.4526 22.1999 78.1391 22.3672 77.7436C22.5344 77.348 22.5375 76.9026 22.3758 76.5048Z" fill="white"/>
<path d="M65.7993 62.4822C65.9494 63.3671 65.7409 64.2752 65.2196 65.0072C64.6983 65.7392 63.9067 66.2354 63.0186 66.3869L34.1738 71.2735C33.7338 71.3481 33.2833 71.3356 32.8482 71.2367C32.413 71.1379 32.0017 70.9546 31.6376 70.6975C31.2735 70.4403 30.9639 70.1142 30.7264 69.7379C30.4888 69.3615 30.328 68.9423 30.2532 68.504C30.1784 68.0658 30.1909 67.6172 30.2902 67.1838C30.3894 66.7504 30.5734 66.3407 30.8316 65.9781C31.0898 65.6155 31.4172 65.3071 31.7951 65.0705C32.1729 64.834 32.5939 64.6738 33.0339 64.5993L61.8787 59.7127C62.7672 59.5632 63.679 59.7708 64.414 60.29C65.1489 60.8092 65.6472 61.5976 65.7993 62.4822Z" fill="#3F3D56"/>
<path d="M96.1575 94.3106C95.7431 94.7257 95.1804 94.96 94.5927 94.9623C94.005 94.9646 93.4404 94.7347 93.0228 94.3229L61.9718 63.6401C61.5551 63.2276 61.3199 62.6672 61.3179 62.082C61.3158 61.4969 61.5471 60.9348 61.9609 60.5195C62.3747 60.1041 62.9372 59.8693 63.5247 59.8667C64.1122 59.8641 64.6767 60.094 65.0942 60.5057L96.1452 91.1886C96.5619 91.6013 96.7972 92.1617 96.7996 92.747C96.8019 93.3323 96.571 93.8947 96.1575 94.3106Z" fill="#3F3D56"/>
<path d="M63.5425 67.112C65.6644 67.112 67.3846 65.3988 67.3846 63.2855C67.3846 61.1721 65.6644 59.4589 63.5425 59.4589C61.4205 59.4589 59.7004 61.1721 59.7004 63.2855C59.7004 65.3988 61.4205 67.112 63.5425 67.112Z" fill="#CCCCCC"/>
</svg>
